<?xml version="1.0" standalone="no"?><!DOCTYPE svg PUBLIC "-//W3C//DTD SVG 1.1//EN" "http://www.w3.org/Graphics/SVG/1.1/DTD/svg11.dtd"><svg t="1714369173276" class="icon" viewBox="0 0 1024 1024" version="1.1" xmlns="http://www.w3.org/2000/svg" p-id="10490" xmlns:xlink="http://www.w3.org/1999/xlink" width="500" height="500"><path d="M671 246H415.05a99.67 99.67 0 0 0-99.55 99.55v35.9A99.67 99.67 0 0 0 415.05 481H671a99.67 99.67 0 0 0 99.55-99.55v-35.9A99.67 99.67 0 0 0 671 246z m39.5 135.45A39.59 39.59 0 0 1 671 421H415.05a39.59 39.59 0 0 1-39.55-39.55v-35.9A39.59 39.59 0 0 1 415.05 306H671a39.59 39.59 0 0 1 39.55 39.55zM671 542H233.05a99.67 99.67 0 0 0-99.55 99.55v35.9A99.67 99.67 0 0 0 233.05 777H671a99.67 99.67 0 0 0 99.55-99.55v-35.9A99.67 99.67 0 0 0 671 542z m39.5 135.45A39.59 39.59 0 0 1 671 717H233.05a39.59 39.59 0 0 1-39.55-39.55v-35.9A39.59 39.59 0 0 1 233.05 602H671a39.59 39.59 0 0 1 39.55 39.55zM860 168a30 30 0 0 0-30 30v620.1a30 30 0 0 0 60 0V198a30 30 0 0 0-30-30z" p-id="10491"></path></svg>