<?xml version="1.0" standalone="no"?><!DOCTYPE svg PUBLIC "-//W3C//DTD SVG 1.1//EN" "http://www.w3.org/Graphics/SVG/1.1/DTD/svg11.dtd"><svg t="1714368883642" class="icon" viewBox="0 0 1024 1024" version="1.1" xmlns="http://www.w3.org/2000/svg" p-id="8512" xmlns:xlink="http://www.w3.org/1999/xlink" width="500" height="500"><path d="M512.2 891.3c-11 0-20-9-20-20v-717c0-11 9-20 20-20s20 9 20 20v717c0 11-9 20-20 20z" fill="#1C1C1C" p-id="8513"></path><path d="M674.8 481.8H346.9c-33.1 0-60-26.9-60-60v-128c0-33.1 26.9-60 60-60h327.9c33.1 0 60 26.9 60 60v128c0 33.1-26.9 60-60 60zM346.9 273.9c-11 0-20 9-20 20v128c0 11 9 20 20 20h327.9c11 0 20-9 20-20v-128c0-11-9-20-20-20H346.9zM779.3 788.4H245.1c-33.1 0-60-26.9-60-60V603.7c0-33.1 26.9-60 60-60h534.2c33.1 0 60 26.9 60 60v124.7c0 33.1-26.9 60-60 60zM245.1 583.7c-11 0-20 9-20 20v124.7c0 11 9 20 20 20h534.2c11 0 20-9 20-20V603.7c0-11-9-20-20-20H245.1z" fill="#1C1C1C" p-id="8514"></path></svg>