<?xml version="1.0" standalone="no"?><!DOCTYPE svg PUBLIC "-//W3C//DTD SVG 1.1//EN" "http://www.w3.org/Graphics/SVG/1.1/DTD/svg11.dtd"><svg t="1714368679630" class="icon" viewBox="0 0 1024 1024" version="1.1" xmlns="http://www.w3.org/2000/svg" p-id="5356" xmlns:xlink="http://www.w3.org/1999/xlink" width="500" height="500"><path d="M138.688 85.312a32 32 0 0 1 64 0v853.376a32 32 0 1 1-64 0V85.312zM446.72 181.312h45.44c18.752 0 34.944 0 48.192 1.28 14.08 1.216 27.968 4.032 41.088 11.584 27.904 16.128 39.872 40.96 44.672 64.64 3.712 18.176 3.52 38.144 3.392 53.376a811.904 811.904 0 0 0 0 15.616c0.128 15.168 0.32 35.2-3.392 53.44-4.8 23.616-16.768 48.448-44.672 64.576a97.408 97.408 0 0 1-41.088 11.648c-13.248 1.216-29.44 1.216-48.192 1.216h-45.44c-18.752 0-34.944 0-48.192-1.28a97.408 97.408 0 0 1-41.088-11.584c-27.904-16.128-39.872-40.96-44.672-64.64-3.712-18.176-3.52-38.208-3.392-53.376a811.776 811.776 0 0 0 0-15.616c-0.128-15.168-0.32-35.2 3.392-53.44 4.8-23.616 16.768-48.448 44.672-64.576 13.12-7.552 27.008-10.368 41.088-11.648 13.248-1.216 29.44-1.216 48.192-1.216z m-42.432 64.96c-9.6 0.896-13.12 2.368-14.848 3.328-7.68 4.48-11.648 10.624-13.952 21.952-2.24 10.944-2.176 22.912-2.112 38.144a1580.8 1580.8 0 0 1 0 20.608c-0.064 15.232-0.128 27.136 2.112 38.144 2.304 11.328 6.336 17.536 13.952 21.952 1.728 0.96 5.248 2.432 14.848 3.328 10.048 0.896 23.296 0.96 43.84 0.96h42.624c20.544 0 33.792 0 43.84-0.96 9.6-0.896 13.12-2.368 14.848-3.328 7.68-4.48 11.648-10.624 13.952-21.952 2.24-11.008 2.176-22.912 2.112-38.144a1580.8 1580.8 0 0 1 0-20.608c0.064-15.232 0.128-27.2-2.112-38.144-2.304-11.328-6.336-17.536-13.952-21.952-1.728-0.96-5.248-2.432-14.848-3.328a546.304 546.304 0 0 0-43.84-0.96h-42.624c-20.544 0-33.792 0-43.84 0.96zM446.72 565.312h301.44c18.752 0 34.944 0 48.256 1.28 14.016 1.216 27.904 4.032 41.024 11.584 27.904 16.128 39.872 40.96 44.672 64.64 3.712 18.176 3.52 38.144 3.392 53.376a692.544 692.544 0 0 0 0 15.616c0.128 15.232 0.32 35.2-3.392 53.44-4.8 23.616-16.768 48.448-44.672 64.576a97.408 97.408 0 0 1-41.088 11.648c-13.248 1.216-29.44 1.216-48.192 1.216H446.72c-18.752 0-34.944 0-48.192-1.28a97.408 97.408 0 0 1-41.088-11.584c-27.904-16.128-39.872-40.96-44.672-64.64-3.712-18.176-3.52-38.144-3.392-53.376a811.968 811.968 0 0 0 0-15.616c-0.128-15.232-0.32-35.2 3.392-53.44 4.8-23.616 16.768-48.448 44.672-64.576 13.12-7.552 27.008-10.368 41.088-11.648 13.248-1.216 29.44-1.216 48.192-1.216z m-42.432 64.96c-9.6 0.896-13.12 2.368-14.848 3.328-7.68 4.48-11.648 10.624-13.952 21.952-2.24 10.944-2.176 22.912-2.112 38.08a1581.76 1581.76 0 0 1 0 20.672c-0.064 15.232-0.128 27.2 2.112 38.144 2.304 11.328 6.336 17.536 13.952 21.952 1.728 0.96 5.248 2.432 14.848 3.328 10.048 0.896 23.296 0.96 43.84 0.96h298.624c20.544 0 33.792 0 43.84-0.96 9.6-0.896 13.12-2.368 14.848-3.328 7.68-4.48 11.648-10.624 13.952-21.952 2.24-10.944 2.176-22.912 2.112-38.144L821.44 704v-10.368c0.128-15.168 0.192-27.072-2.048-38.08-2.304-11.328-6.336-17.536-13.952-21.952-1.728-0.96-5.248-2.432-14.848-3.328a546.304 546.304 0 0 0-43.84-0.96H448.128c-20.544 0-33.792 0-43.84 0.96z" fill="#333333" p-id="5357"></path></svg>