<?xml version="1.0" standalone="no"?><!DOCTYPE svg PUBLIC "-//W3C//DTD SVG 1.1//EN" "http://www.w3.org/Graphics/SVG/1.1/DTD/svg11.dtd"><svg t="1714369243748" class="icon" viewBox="0 0 1075 1024" version="1.1" xmlns="http://www.w3.org/2000/svg" p-id="12269" xmlns:xlink="http://www.w3.org/1999/xlink" width="524.90234375" height="500"><path d="M952.32 128c0-15.36-10.24-25.6-25.6-25.6h-768c-15.36 0-25.6 15.36-25.6 25.6s10.24 25.6 25.6 25.6h768c15.36 0 25.6-10.24 25.6-25.6zM793.6 291.84h-138.24c-30.72 0-51.2 20.48-51.2 51.2v358.4c0 30.72 20.48 51.2 51.2 51.2h138.24c30.72 0 51.2-20.48 51.2-51.2v-358.4c0-30.72-25.6-51.2-51.2-51.2z m0 409.6h-138.24v-358.4h138.24v358.4zM424.96 291.84H291.84c-30.72 0-51.2 20.48-51.2 51.2v512c0 30.72 20.48 51.2 51.2 51.2h138.24c30.72 0 51.2-20.48 51.2-51.2v-512c-5.12-30.72-25.6-51.2-56.32-51.2z m0 563.2H286.72v-512h138.24v512z" fill="#212930" p-id="12270"></path></svg>