<?xml version="1.0" standalone="no"?><!DOCTYPE svg PUBLIC "-//W3C//DTD SVG 1.1//EN" "http://www.w3.org/Graphics/SVG/1.1/DTD/svg11.dtd"><svg t="1609120906507" class="icon" viewBox="0 0 1024 1024" version="1.1" xmlns="http://www.w3.org/2000/svg" p-id="3233" xmlns:xlink="http://www.w3.org/1999/xlink" width="16" height="16"><defs><style type="text/css"></style></defs><path d="M704 128h-64v256h256V320h-192zM320 128h64v256H128V320h192zM384 640H128v64h192v192h64zM640 640h256v64h-192v192h-64zM576 640H448c-35.328 0-64-28.672-64-64V448c0-35.328 28.672-64 64-64h128c35.328 0 64 28.672 64 64v128c0 35.328-28.672 64-64 64zM448 448v128h128V448H448z" p-id="3234"></path></svg>