<?xml version="1.0" standalone="no"?><!DOCTYPE svg PUBLIC "-//W3C//DTD SVG 1.1//EN" "http://www.w3.org/Graphics/SVG/1.1/DTD/svg11.dtd"><svg t="1609121441821" class="icon" viewBox="0 0 1024 1024" version="1.1" xmlns="http://www.w3.org/2000/svg" p-id="9367" xmlns:xlink="http://www.w3.org/1999/xlink" width="16" height="16"><defs><style type="text/css"></style></defs><path d="M864 708.48V544a64 64 0 0 0-64-64h-256V315.52a128 128 0 1 0-64 0V480h-256a64 64 0 0 0-64 64v164.48a128 128 0 1 0 64 0V544h576v164.48a128 128 0 1 0 64 0zM256 832a64 64 0 1 1-128 0 64 64 0 0 1 128 0zM448 192a64 64 0 1 1 128 0 64 64 0 0 1-128 0z m384 704a64 64 0 1 1 0-128 64 64 0 0 1 0 128z" p-id="9368"></path></svg>