<?xml version="1.0" standalone="no"?><!DOCTYPE svg PUBLIC "-//W3C//DTD SVG 1.1//EN" "http://www.w3.org/Graphics/SVG/1.1/DTD/svg11.dtd"><svg t="1609121042913" class="icon" viewBox="0 0 1024 1024" version="1.1" xmlns="http://www.w3.org/2000/svg" p-id="5360" xmlns:xlink="http://www.w3.org/1999/xlink" width="16" height="16"><defs><style type="text/css"></style></defs><path d="M512 0C226.742857 0 0 226.742857 0 512s226.742857 512 512 512 512-226.742857 512-512-226.742857-512-512-512z m0 950.857143c-241.371429 0-438.857143-197.485714-438.857143-438.857143s197.485714-438.857143 438.857143-438.857143 438.857143 197.485714 438.857143 438.857143-197.485714 438.857143-438.857143 438.857143z m0-102.4A58.514286 58.514286 0 1 0 512 731.428571a58.514286 58.514286 0 0 0 0 117.028572zM548.571429 219.428571h-51.2C402.285714 219.428571 329.142857 292.571429 329.142857 380.342857v14.628572h73.142857v-14.628572c0-43.885714 43.885714-87.771429 95.085715-87.771428h58.514285c51.2 0 87.771429 43.885714 87.771429 87.771428s-43.885714 95.085714-95.085714 95.085714h-73.142858v160.914286h73.142858V548.571429c87.771429 0 160.914286-73.142857 160.914285-160.914286 0-87.771429-73.142857-168.228571-160.914285-168.228572z" p-id="5361"></path></svg>