<?xml version="1.0" standalone="no"?><!DOCTYPE svg PUBLIC "-//W3C//DTD SVG 1.1//EN" "http://www.w3.org/Graphics/SVG/1.1/DTD/svg11.dtd"><svg t="1610079130872" class="icon" viewBox="0 0 1024 1024" version="1.1" xmlns="http://www.w3.org/2000/svg" p-id="2719" xmlns:xlink="http://www.w3.org/1999/xlink" width="16" height="16"><defs><style type="text/css"></style></defs><path d="M531.52 70.72a32 32 0 0 0-39.68 0L32 429.44l39.68 50.56 56.32-44.16V832a64 64 0 0 0 64 64h640a64 64 0 0 0 64-64V436.16l56.32 43.84 39.68-50.24-460.48-359.04zM576 832H448V576h128v256z m64 0V576a64 64 0 0 0-64-64H448a64 64 0 0 0-64 64v256H192V385.92l320-249.28 320 249.6V832h-192z" p-id="2720"></path></svg>