<?xml version="1.0" standalone="no"?><!DOCTYPE svg PUBLIC "-//W3C//DTD SVG 1.1//EN" "http://www.w3.org/Graphics/SVG/1.1/DTD/svg11.dtd"><svg t="1714369388481" class="icon" viewBox="0 0 1024 1024" version="1.1" xmlns="http://www.w3.org/2000/svg" p-id="14381" xmlns:xlink="http://www.w3.org/1999/xlink" width="500" height="500"><path d="M576 170.666667h-128a85.333333 85.333333 0 0 0-85.333333 85.333333v512a85.333333 85.333333 0 0 0 85.333333 85.333333h128a85.333333 85.333333 0 0 0 85.333333-85.333333V256a85.333333 85.333333 0 0 0-85.333333-85.333333z m0 597.333333h-128V256h128zM234.666667 85.333333a42.666667 42.666667 0 0 0-42.666667 42.666667v768a42.666667 42.666667 0 0 0 85.333333 0V128a42.666667 42.666667 0 0 0-42.666666-42.666667zM789.333333 85.333333a42.666667 42.666667 0 0 0-42.666666 42.666667v768a42.666667 42.666667 0 0 0 85.333333 0V128a42.666667 42.666667 0 0 0-42.666667-42.666667z" fill="#333333" p-id="14382"></path></svg>