<?xml version="1.0" standalone="no"?><!DOCTYPE svg PUBLIC "-//W3C//DTD SVG 1.1//EN" "http://www.w3.org/Graphics/SVG/1.1/DTD/svg11.dtd"><svg t="1714363782479" class="icon" viewBox="0 0 1024 1024" version="1.1" xmlns="http://www.w3.org/2000/svg" p-id="4514" xmlns:xlink="http://www.w3.org/1999/xlink" width="500" height="500"><path d="M192 64a128 128 0 0 1 110.272 193.024l464.64 464.704a128 128 0 1 1-45.248 45.248l-464.64-464.704A128 128 0 1 1 192 64z m640 704a64 64 0 1 0 0 128 64 64 0 0 0 0-128zM192 128a64 64 0 1 0 0 128 64 64 0 0 0 0-128z" fill="#3A3A3D" p-id="4515"></path></svg>