<?xml version="1.0" standalone="no"?><!DOCTYPE svg PUBLIC "-//W3C//DTD SVG 1.1//EN" "http://www.w3.org/Graphics/SVG/1.1/DTD/svg11.dtd"><svg t="1714363786286" class="icon" viewBox="0 0 1024 1024" version="1.1" xmlns="http://www.w3.org/2000/svg" p-id="4676" xmlns:xlink="http://www.w3.org/1999/xlink" width="500" height="500"><path d="M192 64a128 128 0 0 1 123.968 96H384a160 160 0 0 1 159.68 149.504L544 320v384a96 96 0 0 0 86.784 95.552L640 800h68.032a128 128 0 1 1 0 64.064L640 864a160 160 0 0 1-159.68-149.504L480 704V320a96 96 0 0 0-86.784-95.552L384 224l-68.032 0.064A128 128 0 1 1 192 64z m640 704a64 64 0 1 0 0 128 64 64 0 0 0 0-128zM192 128a64 64 0 1 0 0 128 64 64 0 0 0 0-128z" fill="#3A3A3D" p-id="4677"></path></svg>