<?xml version="1.0" standalone="no"?><!DOCTYPE svg PUBLIC "-//W3C//DTD SVG 1.1//EN" "http://www.w3.org/Graphics/SVG/1.1/DTD/svg11.dtd"><svg t="1714363800223" class="icon" viewBox="0 0 1024 1024" version="1.1" xmlns="http://www.w3.org/2000/svg" p-id="4836" xmlns:xlink="http://www.w3.org/1999/xlink" width="500" height="500"><path d="M798.72 665.6c-61.44 0-112.64 40.96-122.88 97.28h-122.88c-15.36 0-25.6-10.24-25.6-25.6V291.84c0-40.96-35.84-76.8-76.8-76.8H358.4c-10.24-66.56-61.44-117.76-128-117.76C158.72 97.28 102.4 153.6 102.4 225.28s56.32 128 128 128c56.32 0 107.52-35.84 122.88-92.16h97.28c15.36 0 25.6 10.24 25.6 25.6v450.56c0 40.96 35.84 76.8 76.8 76.8h117.76c10.24 61.44 61.44 107.52 128 107.52 71.68 0 128-56.32 128-128S865.28 665.6 798.72 665.6zM230.4 302.08C189.44 302.08 153.6 271.36 153.6 225.28s35.84-76.8 76.8-76.8S307.2 184.32 307.2 225.28s-35.84 76.8-76.8 76.8zM798.72 870.4c-40.96 0-76.8-35.84-76.8-76.8s35.84-76.8 76.8-76.8 76.8 35.84 76.8 76.8-35.84 76.8-76.8 76.8z" fill="#212930" p-id="4837"></path></svg>