<?xml version="1.0" standalone="no"?><!DOCTYPE svg PUBLIC "-//W3C//DTD SVG 1.1//EN" "http://www.w3.org/Graphics/SVG/1.1/DTD/svg11.dtd"><svg t="1611125655663" class="icon" viewBox="0 0 1024 1024" version="1.1" xmlns="http://www.w3.org/2000/svg" p-id="3669" xmlns:xlink="http://www.w3.org/1999/xlink" width="200" height="200"><defs><style type="text/css"></style></defs><path d="M685.12 736L512 562.944 338.88 736l-50.88-50.88L461.12 512 288 338.88l50.88-50.88L512 461.12 685.056 288l50.944 50.88L562.944 512l173.056 173.12-50.88 50.88zM512 128a384 384 0 1 1-384 384 384.448 384.448 0 0 1 384-384z m0-64a448 448 0 1 0 0 896A448 448 0 0 0 512 64z" p-id="3670"></path></svg>