<?xml version="1.0" standalone="no"?><!DOCTYPE svg PUBLIC "-//W3C//DTD SVG 1.1//EN" "http://www.w3.org/Graphics/SVG/1.1/DTD/svg11.dtd"><svg t="1714370198607" class="icon" viewBox="0 0 1024 1024" version="1.1" xmlns="http://www.w3.org/2000/svg" p-id="25663" xmlns:xlink="http://www.w3.org/1999/xlink" width="500" height="500"><path d="M83.712 606.016L464.384 334.08c26.304-18.752 68.928-18.752 95.232 0l380.672 271.936c26.24 18.752 26.24 49.216 0 67.968L559.616 945.92c-26.304 18.752-68.928 18.752-95.232 0l-380.672-271.936c-26.24-18.752-26.24-49.216 0-67.968z" fill="#C0C6CF" p-id="25664"></path><path d="M559.616 334.08l380.672 271.936c26.24 18.752 26.24 49.216 0 67.968L559.616 945.92c-26.304 18.752-68.928 18.752-95.232 0l-380.672-271.936c-26.24-18.752-26.24-49.216 0-67.968L464.384 334.08c26.304-18.752 68.928-18.752 95.232 0z m-37.248 52.096c-3.2-2.304-11.968-2.752-17.408-1.408l-3.328 1.408L146.176 640l355.456 253.824c3.2 2.304 11.968 2.752 17.408 1.408l3.328-1.408L877.76 640 522.368 386.176z" fill="#3D4757" p-id="25665"></path><path d="M79.488 292.8l299.136-217.536c20.608-15.04 54.144-15.04 74.752 0l299.136 217.6c20.672 14.976 20.672 39.296 0 54.336L453.376 564.736c-20.608 15.04-54.144 15.04-74.752 0l-299.136-217.6c-20.672-14.976-20.672-39.296 0-54.336z" fill="#FFFFFF" p-id="25666"></path><path d="M453.376 75.264l299.136 217.6c20.672 14.976 20.672 39.296 0 54.336L453.376 564.736c-20.608 15.04-54.144 15.04-74.752 0l-299.136-217.6c-20.672-14.976-20.672-39.296 0-54.336l299.136-217.536c20.608-15.04 54.144-15.04 74.752 0zM150.848 320l265.024 192.768 0.128-0.128 0.064 0.128L681.088 320 416.064 127.168 150.848 320z" fill="#3D4757" p-id="25667"></path><path d="M960 64v320h-64V192h-64V128h64V64h64z" fill="#3D4757" p-id="25668"></path></svg>