<?xml version="1.0" standalone="no"?><!DOCTYPE svg PUBLIC "-//W3C//DTD SVG 1.1//EN" "http://www.w3.org/Graphics/SVG/1.1/DTD/svg11.dtd"><svg t="1714370217850" class="icon" viewBox="0 0 1097 1024" version="1.1" xmlns="http://www.w3.org/2000/svg" p-id="26677" xmlns:xlink="http://www.w3.org/1999/xlink" width="535.64453125" height="500"><path d="M895.986134 895.986134v-298.662045h-59.732409v179.197227h-59.732409v59.732409h59.732409v59.732409h59.732409z" fill="#3D4757" p-id="26678"></path><path d="M74.187652 631.670224l279.189279-203.030458c19.233836-14.037116 50.533618-14.037116 69.767454 0l279.189279 203.090191c19.293568 13.977384 19.293568 36.675699 0 50.712815l-279.189279 203.030458c-19.233836 14.037116-50.533618 14.037116-69.767454 0l-279.189279-203.090191c-19.293568-13.977384-19.293568-36.675699 0-50.712815z" fill="#FFFFFF" p-id="26679"></path><path d="M423.144385 428.639766l279.189279 203.090191c19.293568 13.977384 19.293568 36.675699 0 50.712815l-279.189279 203.030458c-19.233836 14.037116-50.533618 14.037116-69.767454 0l-279.189279-203.090191c-19.293568-13.977384-19.293568-36.675699 0-50.712815l279.189279-203.030458c19.233836-14.037116 50.533618-14.037116 69.767454 0zM140.789288 657.056498l247.351905 179.914016 0.119465-0.119465 0.059732 0.119465L635.672296 657.056498 388.32039 477.08275 140.789288 657.056498z" fill="#3D4757" p-id="26680"></path><path d="M78.129991 326.676544L433.418359 72.873539c24.55002-17.501596 64.331804-17.501596 88.881825 0l355.288368 253.803005c24.490288 17.501596 24.490288 45.934222 0 63.435819L522.300184 643.915368c-24.55002 17.501596-64.331804 17.501596-88.881825 0L78.129991 390.112363c-24.490288-17.501596-24.490288-45.934222 0-63.435819z" fill="#C0C6CF" p-id="26681"></path><path d="M522.300184 72.873539l355.288368 253.803005c24.490288 17.501596 24.490288 45.934222 0 63.435819L522.300184 643.915368c-24.55002 17.501596-64.331804 17.501596-88.881825 0L78.129991 390.112363c-24.490288-17.501596-24.490288-45.934222 0-63.435819L433.418359 72.873539c24.55002-17.501596 64.331804-17.501596 88.881825 0z m-34.764262 48.622181c-2.98662-2.150367-11.16996-2.568494-16.247216-1.314113l-3.106085 1.314113L136.428822 358.394454l331.753799 236.898733c2.98662 2.150367 11.16996 2.568494 16.247215 1.314113l3.106086-1.314113L819.229988 358.394454 487.535922 121.49572z" fill="#3D4757" p-id="26682"></path></svg>