<?xml version="1.0" standalone="no"?><!DOCTYPE svg PUBLIC "-//W3C//DTD SVG 1.1//EN" "http://www.w3.org/Graphics/SVG/1.1/DTD/svg11.dtd"><svg t="1714370107336" class="icon" viewBox="0 0 1024 1024" version="1.1" xmlns="http://www.w3.org/2000/svg" p-id="22933" xmlns:xlink="http://www.w3.org/1999/xlink" width="500" height="500"><path d="M22.60085 301.4L495.90085 518c5.1 2.3 10.6 3.5 16.1 3.5 5.5 0 11-1.2 16.1-3.5l473.2-216.6c14-6.4 22.7-20 22.6-35.4-0.1-15.4-8.8-28.9-22.9-35.2L527.90085 17.9a39.14 39.14 0 0 0-31.8 0L22.90085 230.8C8.80085 237.1 0.10085 250.6 0.00085 266c-0.1 15.4 8.6 28.9 22.6 35.4zM512.00085 65.6l446 200.6-446 204.2L66.00085 266.2 512.00085 65.6zM1001.10085 718.8l-130.3-58.6L512.00085 824.4 153.20085 660.1 22.90085 718.8C8.80085 725.1 0.10085 738.6 0.00085 754c-0.1 15.4 8.6 29 22.6 35.4L495.90085 1006c5.1 2.3 10.6 3.5 16.1 3.5 5.5 0 11-1.2 16.1-3.5l473.2-216.6c14-6.4 22.7-20 22.6-35.4 0-15.4-8.7-28.9-22.8-35.2z" p-id="22934"></path><path d="M22.60085 545.4L495.90085 762c5.1 2.3 10.6 3.5 16.1 3.5s11-1.2 16.1-3.5l473.2-216.6c14-6.4 22.7-20 22.6-35.4s-8.8-28.9-22.9-35.2l-125.7-56.5c-12.6-5.7-27.4 0-33.1 12.5-5.7 12.6 0 27.4 12.5 33.1L958.00085 510.2 512.00085 714.4 66.00085 510.2l103-46.4c12.6-5.7 18.2-20.5 12.5-33.1s-20.5-18.2-33.1-12.5L22.90085 474.8C8.80085 481.1 0.10085 494.6 0.00085 510c-0.1 15.4 8.6 28.9 22.6 35.4z" p-id="22935"></path></svg>