<?xml version="1.0" standalone="no"?><!DOCTYPE svg PUBLIC "-//W3C//DTD SVG 1.1//EN" "http://www.w3.org/Graphics/SVG/1.1/DTD/svg11.dtd"><svg t="1609121459650" class="icon" viewBox="0 0 1024 1024" version="1.1" xmlns="http://www.w3.org/2000/svg" p-id="9992" xmlns:xlink="http://www.w3.org/1999/xlink" width="16" height="16"><defs><style type="text/css"></style></defs><path d="M889.6 294.4l-160-160c-6.4 0-19.2-6.4-25.6-6.4H192c-38.4 0-64 25.6-64 64v640c0 38.4 25.6 64 64 64h640c38.4 0 64-25.6 64-64V320c0-6.4-6.4-19.2-6.4-25.6zM384 192h256v128H384V192z m256 640H384V576h256v256z m64 0V576c0-38.4-25.6-64-64-64H384c-38.4 0-64 25.6-64 64v256H192V192h128v128c0 38.4 25.6 64 64 64h256c38.4 0 64-25.6 64-64V204.8l128 128V832h-128z" p-id="9993"></path></svg>