<?xml version="1.0" standalone="no"?><!DOCTYPE svg PUBLIC "-//W3C//DTD SVG 1.1//EN" "http://www.w3.org/Graphics/SVG/1.1/DTD/svg11.dtd"><svg t="1609121093235" class="icon" viewBox="0 0 1024 1024" version="1.1" xmlns="http://www.w3.org/2000/svg" p-id="5985" xmlns:xlink="http://www.w3.org/1999/xlink" width="16" height="16"><defs><style type="text/css"></style></defs><path d="M510.424462 672.028444a159.971556 159.971556 0 1 0 0-320 159.971556 159.971556 0 0 0 0 320z m0 63.943112a224.028444 224.028444 0 1 1 0-448 224.028444 224.028444 0 0 1 0 448z" p-id="5986"></path><path d="M429.585351 168.675556L409.617351 174.648889a350.890667 350.890667 0 0 0-116.622222 60.529778l-16.384 12.856889-91.249778-48.241778-77.767111 110.933333L183.540907 379.448889l-6.712889 19.911111a354.190222 354.190222 0 0 0-12.629334 176.526222l3.242667 17.521778-74.979555 67.754667 77.710222 110.990222 67.868444-35.84 16.725334 17.635555A351.971556 351.971556 0 0 0 409.617351 849.351111l19.968 5.973333 13.084445 104.675556h135.509333l13.084444-104.675556 20.024889-5.973333a351.573333 351.573333 0 0 0 141.425778-81.976889l16.668444-15.815111 69.745778 36.864 77.710222-110.933333-69.12-62.577778 4.551112-18.545778a352.881778 352.881778 0 0 0-4.664889-185.912889l-5.859556-19.342222 73.671111-66.616889-77.710222-110.990222-83.171556 43.975111-16.497777-14.051555a351.175111 351.175111 0 0 0-126.748445-68.778667l-20.024889-5.973333-13.084444-104.675556H442.669796l-13.084445 104.675556zM379.181796 56.035556C383.164018 24.007111 410.413796 0 442.669796 0h135.509333c32.312889 0 59.505778 24.007111 63.544889 56.035556l7.964444 63.829333c40.561778 14.392889 78.506667 35.043556 112.64 61.041778l45.454222-24.007111a64 64 0 0 1 82.318223 19.911111l77.710222 110.933333c18.545778 26.453333 14.449778 62.577778-9.500445 84.195556l-44.032 39.822222a416.881778 416.881778 0 0 1 4.323556 180.963555l41.187556 37.262223c23.893333 21.617778 27.989333 57.742222 9.500444 84.195555l-77.767111 110.933333a64 64 0 0 1-82.318222 19.911112l-29.696-15.701334a415.573333 415.573333 0 0 1-129.820445 74.808889l-7.964444 63.829333c-3.982222 32.028444-31.288889 56.035556-63.544889 56.035556H442.669796a64 64 0 0 1-63.488-56.035556l-7.964445-63.829333a415.914667 415.914667 0 0 1-145.578667-88.917333l-25.543111 13.539555a64 64 0 0 1-82.318222-19.911111l-77.767111-110.933333a64 64 0 0 1 9.500444-84.195556l48.924445-44.202666a419.384889 419.384889 0 0 1 11.491555-170.382223l-45.226666-40.903111a64 64 0 0 1-9.500445-84.195555l77.710223-110.933334a64 64 0 0 1 82.375111-19.911111l55.011555 29.127111a414.833778 414.833778 0 0 1 100.920889-52.451555l7.964445-63.829333z" p-id="5987"></path></svg>