<?xml version="1.0" standalone="no"?><!DOCTYPE svg PUBLIC "-//W3C//DTD SVG 1.1//EN" "http://www.w3.org/Graphics/SVG/1.1/DTD/svg11.dtd"><svg t="1714371104765" class="icon" viewBox="0 0 1025 1024" version="1.1" xmlns="http://www.w3.org/2000/svg" p-id="37579" xmlns:xlink="http://www.w3.org/1999/xlink" width="500.48828125" height="500"><path d="M896.512 229.888c-82.176-82.176-191.488-127.488-307.712-127.488s-225.536 45.2608-307.712 127.488-127.488 191.488-127.488 307.712l0 66.2016-109.8752-109.8752c-9.984-9.984-26.2144-9.984-36.1984 0s-9.984 26.2144 0 36.1984l153.6 153.6c5.0176 5.0176 11.5712 7.4752 18.1248 7.4752s13.1072-2.5088 18.1248-7.4752l153.6-153.6c9.984-9.984 9.984-26.2144 0-36.1984s-26.2144-9.984-36.1984 0l-109.8752 109.8752 0-66.2016c0-211.7632 172.2368-384 384-384s384 172.2368 384 384-172.2368 384-384 384c-14.1312 0-25.6 11.4688-25.6 25.6s11.4688 25.6 25.6 25.6c116.224 0 225.536-45.2608 307.712-127.488s127.488-191.488 127.488-307.712c0-116.224-45.2608-225.536-127.488-307.712z" fill="#000000" p-id="37580"></path></svg>