<?xml version="1.0" standalone="no"?><!DOCTYPE svg PUBLIC "-//W3C//DTD SVG 1.1//EN" "http://www.w3.org/Graphics/SVG/1.1/DTD/svg11.dtd"><svg t="1609127505323" class="icon" viewBox="0 0 1024 1024" version="1.1" xmlns="http://www.w3.org/2000/svg" p-id="3788" xmlns:xlink="http://www.w3.org/1999/xlink" width="16" height="16"><defs><style type="text/css"></style></defs><path d="M114.688 160.064l45.248-45.248 109.312 109.248-45.248 45.312L114.688 160z m639.872 639.68l45.312-45.248 109.248 109.312-45.248 45.248-109.248-109.312zM352 64h64v128h-64V64zM64 352h128v64H64v-64z m768 256h128v64h-128v-64zM608 832h64v128h-64v-128z m-77.44-157.76l-118.72 119.04a128.064 128.064 0 1 1-181.12-181.12l119.04-119.04L304.32 448 185.6 567.04a192 192 0 0 0-1.92 273.28A192 192 0 0 0 320 896c51.904 0 101.76-20.672 138.24-57.6L576 719.68l-45.44-45.44z m-37.44-324.48l119.04-119.04a128.064 128.064 0 1 1 181.12 181.12l-119.04 119.04 45.44 45.12L838.4 456.96a192 192 0 0 0 1.92-273.28A192 192 0 0 0 704 128c-51.904 0-101.76 20.672-138.24 57.6L448 304.32l45.12 45.44z" p-id="3789"></path></svg>