<?xml version="1.0" standalone="no"?><!DOCTYPE svg PUBLIC "-//W3C//DTD SVG 1.1//EN" "http://www.w3.org/Graphics/SVG/1.1/DTD/svg11.dtd"><svg t="1714369507655" class="icon" viewBox="0 0 1024 1024" version="1.1" xmlns="http://www.w3.org/2000/svg" p-id="19579" xmlns:xlink="http://www.w3.org/1999/xlink" width="500" height="500"><path d="M153.6 755.2h716.8V832H153.6zM153.6 192h716.8v76.8H153.6zM716.8 652.8c49.4 0 89.6-40.2 89.6-89.6V460.8c0-49.4-40.2-89.6-89.6-89.6H307.2c-49.4 0-89.6 40.2-89.6 89.6v102.4c0 49.4 40.2 89.6 89.6 89.6h409.6z m-422.4-89.6V460.8c0-7.1 5.7-12.8 12.8-12.8h409.6c7.1 0 12.8 5.7 12.8 12.8v102.4c0 7.1-5.7 12.8-12.8 12.8H307.2c-7.1 0-12.8-5.7-12.8-12.8z" fill="#333333" p-id="19580"></path></svg>