<?xml version="1.0" standalone="no"?><!DOCTYPE svg PUBLIC "-//W3C//DTD SVG 1.1//EN" "http://www.w3.org/Graphics/SVG/1.1/DTD/svg11.dtd"><svg t="1714368813805" class="icon" viewBox="0 0 1024 1024" version="1.1" xmlns="http://www.w3.org/2000/svg" p-id="3979" xmlns:xlink="http://www.w3.org/1999/xlink" width="500" height="500"><path d="M870.6 532.4H153.9c-11 0-20-8.9-20-20s8.9-20 20-20h716.7c11 0 20 8.9 20 20s-8.9 20-20 20z" fill="#1C1C1C" p-id="3980"></path><path d="M731.1 734.9H603.2c-33.1 0-60-26.9-60-60V347.2c0-33.1 26.9-60 60-60h127.9c33.1 0 60 26.9 60 60v327.7c-0.1 33.1-27 60-60 60zM603.2 327.2c-11 0-20 9-20 20v327.7c0 11 9 20 20 20h127.9c11 0 20-9 20-20V347.2c0-11-9-20-20-20H603.2zM421.4 839.3H296.7c-33.1 0-60-26.9-60-60v-534c0-33.1 26.9-60 60-60h124.7c33.1 0 60 26.9 60 60v534c0 33.1-26.9 60-60 60zM296.7 225.4c-11 0-20 9-20 20v534c0 11 9 20 20 20h124.7c11 0 20-9 20-20v-534c0-11-9-20-20-20H296.7z" fill="#1C1C1C" p-id="3981"></path></svg>