<?xml version="1.0" standalone="no"?><!DOCTYPE svg PUBLIC "-//W3C//DTD SVG 1.1//EN" "http://www.w3.org/Graphics/SVG/1.1/DTD/svg11.dtd"><svg t="1609120976680" class="icon" viewBox="0 0 1024 1024" version="1.1" xmlns="http://www.w3.org/2000/svg" p-id="3984" xmlns:xlink="http://www.w3.org/1999/xlink" width="16" height="16"><defs><style type="text/css"></style></defs><path d="M576 384H448V256H384v128H256v64h128v128h64V448h128V384z m108.8 256c51.2-64 83.2-140.8 83.2-224C768 224 608 64 416 64S64 224 64 416 224 768 416 768c83.2 0 160-32 224-83.2l243.2 243.2 44.8-44.8-243.2-243.2z m-268.8 64C256 704 128 576 128 416S256 128 416 128 704 256 704 416 576 704 416 704z" p-id="3985"></path></svg>